<svg viewBox="0 0 240 200" xmlns="http://www.w3.org/2000/svg" role="img" aria-labelledby="title desc">
  <title>Calculator Vault Logo</title>
  <desc>Stylized calculator icon with math symbols and equals editor style</desc>
  <defs>
    <linearGradient id="bgGrad" x1="0" y1="0" x2="1" y2="1">
      <stop offset="0%" stop-color="#61b5ff" />
      <stop offset="100%" stop-color="#4d86ff" />
    </linearGradient>
    <filter id="shadow" x="-20%" y="-20%" width="140%" height="140%">
      <feDropShadow dx="0" dy="10" stdDeviation="14" flood-color="#0f172a" flood-opacity="0.16"/>
    </filter>
  </defs>
  <rect x="12" y="12" width="216" height="176" rx="40" fill="url(#bgGrad)" filter="url(#shadow)"/>
  <rect x="22" y="22" width="96" height="156" rx="34" fill="#0f172a" opacity="0.95"/>
  <rect x="124" y="34" width="90" height="132" rx="35" fill="#64b5ff" />
  <path d="M153 88c0-8.3 6.7-15 15-15s15 6.7 15 15-6.7 15-15 15-15-6.7-15-15Zm0 42c0-8.3 6.7-15 15-15s15 6.7 15 15-6.7 15-15 15-15-6.7-15-15Z" fill="#ffffff" opacity="0.9"/>
  <path d="M55 68c3.8-3.8 9.9-3.8 13.7 0L94 93.4l24.3-25.4c3.8-3.8 9.9-3.8 13.7 0 3.8 3.8 3.8 9.9 0 13.7L107.7 107l24.3 25.4c3.8 3.8 3.8 9.9 0 13.7-3.8 3.8-9.9 3.8-13.7 0L94 120.6 69.7 146c-3.8 3.8-9.9 3.8-13.7 0-3.8-3.8-3.8-9.9 0-13.7L80.3 107 55 81.7c-3.8-3.8-3.8-9.9 0-13.7Z" fill="#fff" opacity="0.94"/>
  <path d="M36 38c0-1.7 1.3-3 3-3h20c1.7 0 3 1.3 3 3s-1.3 3-3 3H39c-1.7 0-3-1.3-3-3Zm20 94c1.7 0 3 1.3 3 3s-1.3 3-3 3H39c-1.7 0-3-1.3-3-3s1.3-3 3-3h17Zm0 36c1.7 0 3 1.3 3 3s-1.3 3-3 3H39c-1.7 0-3-1.3-3-3s1.3-3 3-3h17Z" fill="#d1d5db" opacity="0.95"/>
  <rect x="138" y="76" width="52" height="16" rx="8" fill="#fff"/>
  <rect x="138" y="104" width="52" height="16" rx="8" fill="#fff"/>
</svg>
